<?xml version="1.0" encoding="UTF-8" standalone="no"?>
<svg
   width="73"
   height="103"
   version="1.1"
   viewBox="0 0 73 103"
   id="svg67"
   sodipodi:docname="button.svg"
   inkscape:version="1.4.2 (ebf0e940d0, 2025-05-08)"
   xmlns:inkscape="http://www.inkscape.org/namespaces/inkscape"
   xmlns:sodipodi="http://sodipodi.sourceforge.net/DTD/sodipodi-0.dtd"
   xmlns:xlink="http://www.w3.org/1999/xlink"
   xmlns="http://www.w3.org/2000/svg"
   xmlns:svg="http://www.w3.org/2000/svg">
  <sodipodi:namedview
     id="namedview67"
     pagecolor="#162121"
     bordercolor="#000000"
     borderopacity="0.25"
     inkscape:showpageshadow="2"
     inkscape:pageopacity="0.0"
     inkscape:pagecheckerboard="0"
     inkscape:deskcolor="#d1d1d1"
     inkscape:zoom="19.510655"
     inkscape:cx="21.782969"
     inkscape:cy="19.374029"
     inkscape:window-width="1847"
     inkscape:window-height="1020"
     inkscape:window-x="0"
     inkscape:window-y="0"
     inkscape:window-maximized="0"
     inkscape:current-layer="g66" />
  <defs
     id="defs4">
    <linearGradient
       id="linearGradient68">
      <stop
         stop-color="#7a7a7c"
         offset="0"
         id="stop67"
         style="stop-color:#7a7aff;stop-opacity:1;" />
      <stop
         stop-color="#646466"
         offset="1"
         id="stop68" />
    </linearGradient>
    <linearGradient
       id="fill">
      <stop
         stop-color="#7a7a7c"
         offset="0"
         id="stop1" />
      <stop
         stop-color="#646466"
         offset="1"
         id="stop2" />
    </linearGradient>
    <linearGradient
       id="border">
      <stop
         stop-color="#88888a"
         offset="0"
         id="stop3" />
      <stop
         stop-color="#727274"
         offset="1"
         id="stop4" />
    </linearGradient>
    <linearGradient
       id="linearGradient3316"
       x1="17"
       x2="17"
       y1="125"
       y2="145"
       gradientUnits="userSpaceOnUse"
       xlink:href="#border" />
    <linearGradient
       id="linearGradient3334"
       x1="42"
       x2="42"
       y1="125"
       y2="145"
       gradientUnits="userSpaceOnUse"
       xlink:href="#border" />
    <linearGradient
       id="linearGradient3342"
       x1="20"
       x2="20"
       y1="90"
       y2="110"
       gradientUnits="userSpaceOnUse"
       xlink:href="#linearGradient68" />
    <linearGradient
       id="linearGradient3350"
       x1="18"
       x2="18"
       y1="90"
       y2="110"
       gradientUnits="userSpaceOnUse"
       xlink:href="#fill" />
    <linearGradient
       id="linearGradient3358"
       x1="42"
       x2="42"
       y1="90"
       y2="110"
       gradientUnits="userSpaceOnUse"
       xlink:href="#fill" />
    <linearGradient
       id="linearGradient1275"
       x1="20"
       x2="20"
       y1="90"
       y2="110"
       gradientTransform="translate(35 1.3629e-5)"
       gradientUnits="userSpaceOnUse"
       xlink:href="#fill" />
  </defs>
  <g
     transform="translate(-5 -10)"
     id="g66">
    <rect
       id="toolbutton-pressed-center"
       x="55"
       y="90"
       width="20"
       height="20"
       fill="url(#linearGradient1275)"
       style="fill:#383839;fill-opacity:1" />
    <g
       id="toolbutton-pressed-top"
       transform="translate(35 -35)">
      <path
         transform="translate(0,35)"
         d="m20 88v2h20v-2z"
         fill="#7a7a7c"
         id="path4"
         style="fill:#383839;fill-opacity:1" />
      <rect
         x="20"
         y="122"
         width="20"
         height="1"
         fill="#88888a"
         id="rect4" />
    </g>
    <g
       id="toolbutton-pressed-bottom"
       transform="translate(35 -35)">
      <path
         transform="translate(0,35)"
         d="m20 110v2h20v-2z"
         fill="#646466"
         id="path5"
         style="fill:#383839;fill-opacity:1" />
      <rect
         x="20"
         y="147"
         width="20"
         height="1"
         fill="#727274"
         id="rect5" />
    </g>
    <g
       id="toolbutton-pressed-left"
       transform="translate(35 -35)">
      <path
         transform="translate(0,35)"
         d="m18 90v20h2v-20h-1z"
         fill="url(#linearGradient3350)"
         id="path6"
         style="fill:#383839;fill-opacity:1" />
      <rect
         x="17"
         y="125"
         width="1"
         height="20"
         fill="url(#linearGradient3316)"
         id="rect6" />
    </g>
    <g
       id="toolbutton-pressed-right"
       transform="translate(35 -35)">
      <path
         transform="translate(0,35)"
         d="m40 90v20h2v-20h-1z"
         fill="url(#linearGradient3358)"
         id="path7"
         style="fill:#383839;fill-opacity:1" />
      <rect
         x="42"
         y="125"
         width="1"
         height="20"
         fill="url(#linearGradient3334)"
         id="rect7" />
    </g>
    <g
       id="toolbutton-pressed-topleft"
       transform="translate(35 -35)">
      <path
         transform="translate(5 45)"
         d="m14 77c-1.108 0-2 0.892-2 2v1h1v-1c0-0.554 0.446-1 1-1h1v-1z"
         fill="#88888a"
         id="path8" />
      <path
         d="m19 123c-0.554 0-1 0.446-1 1v1h2v-2z"
         fill="#7a7a7c"
         id="path9"
         style="fill:#383839;fill-opacity:1" />
    </g>
    <g
       id="toolbutton-pressed-topright"
       transform="translate(35 -35)">
      <path
         transform="translate(5 45)"
         d="m35 77v1h1c0.554 0 1 0.446 1 1v1h1v-1c0-1.108-0.892-2-2-2z"
         fill="#88888a"
         id="path10" />
      <path
         d="m42 124c0-0.554-0.446-1-1-1h-1v2h2z"
         fill="#7a7a7c"
         id="path11"
         style="fill:#383839;fill-opacity:1" />
    </g>
    <g
       id="toolbutton-pressed-bottomright"
       transform="translate(35 -35)">
      <path
         transform="translate(5 45)"
         d="m37 100v1c0 0.554-0.446 1-1 1h-1v1h1c1.108 0 2-0.892 2-2v-1z"
         fill="#727274"
         id="path12" />
      <path
         d="m41 147c0.554 0 1-0.446 1-1v-1h-2v2z"
         fill="#646466"
         id="path13"
         style="fill:#383839;fill-opacity:1" />
    </g>
    <g
       id="toolbutton-pressed-bottomleft"
       transform="translate(35 -35)">
      <path
         transform="translate(5 45)"
         d="m12 100v1c0 1.108 0.892 2 2 2h1v-1h-1c-0.554 0-1-0.446-1-1v-1z"
         fill="#727274"
         id="path14" />
      <path
         d="m18 146c0 0.554 0.446 1 1 1h1v-2h-2z"
         fill="#646466"
         id="path15"
         style="fill:#383839;fill-opacity:1" />
    </g>
    <rect
       id="pressed-center"
       x="20"
       y="90"
       width="20"
       height="20"
       fill="url(#linearGradient3342)"
       style="fill:#383839;fill-opacity:1" />
    <g
       id="pressed-top"
       transform="translate(0,-35)">
      <path
         transform="translate(0,35)"
         d="m20 88v2h20v-2z"
         fill="#7a7a7c"
         id="path16"
         style="fill:#383839;fill-opacity:1" />
      <rect
         x="20"
         y="122"
         width="20"
         height="1"
         fill="#88888a"
         id="rect16" />
    </g>
    <g
       id="pressed-bottom"
       transform="translate(0,-35)">
      <path
         transform="translate(0,35)"
         d="m20 110v2h20v-2z"
         fill="#646466"
         id="path17"
         style="fill:#383839;fill-opacity:1" />
      <rect
         x="20"
         y="147"
         width="20"
         height="1"
         fill="#727274"
         id="rect17" />
    </g>
    <g
       id="pressed-left"
       transform="translate(0,-35)">
      <path
         transform="translate(0,35)"
         d="m18 90v20h2v-20h-1z"
         fill="url(#linearGradient3350)"
         id="path18"
         style="fill:#383839;fill-opacity:1" />
      <rect
         x="17"
         y="125"
         width="1"
         height="20"
         fill="url(#linearGradient3316)"
         id="rect18" />
    </g>
    <g
       id="pressed-right"
       transform="translate(0,-35)">
      <path
         transform="translate(0,35)"
         d="m40 90v20h2v-20h-1z"
         fill="url(#linearGradient3358)"
         id="path19"
         style="fill:#383839;fill-opacity:1" />
      <rect
         x="42"
         y="125"
         width="1"
         height="20"
         fill="url(#linearGradient3334)"
         id="rect19" />
    </g>
    <g
       id="pressed-topleft"
       transform="translate(0,-35)">
      <path
         transform="translate(5 45)"
         d="m14 77c-1.108 0-2 0.892-2 2v1h1v-1c0-0.554 0.446-1 1-1h1v-1z"
         fill="#88888a"
         id="path20" />
      <path
         d="m19 123c-0.554 0-1 0.446-1 1v1h2v-2z"
         fill="#7a7a7c"
         id="path21"
         style="fill:#383839;fill-opacity:1" />
    </g>
    <g
       id="pressed-topright"
       transform="translate(0,-35)">
      <path
         transform="translate(5 45)"
         d="m35 77v1h1c0.554 0 1 0.446 1 1v1h1v-1c0-1.108-0.892-2-2-2z"
         fill="#88888a"
         id="path22" />
      <path
         d="m42 124c0-0.554-0.446-1-1-1h-1v2h2z"
         fill="#7a7a7c"
         id="path23"
         style="fill:#383839;fill-opacity:1" />
    </g>
    <g
       id="pressed-bottomright"
       transform="translate(0,-35)">
      <path
         transform="translate(5 45)"
         d="m37 100v1c0 0.554-0.446 1-1 1h-1v1h1c1.108 0 2-0.892 2-2v-1z"
         fill="#727274"
         id="path24" />
      <path
         d="m41 147c0.554 0 1-0.446 1-1v-1h-2v2z"
         fill="#646466"
         id="path25"
         style="fill:#383839;fill-opacity:1" />
    </g>
    <g
       id="pressed-bottomleft"
       transform="translate(0,-35)">
      <path
         transform="translate(5 45)"
         d="m12 100v1c0 1.108 0.892 2 2 2h1v-1h-1c-0.554 0-1-0.446-1-1v-1z"
         fill="#727274"
         id="path26" />
      <path
         d="m18 146c0 0.554 0.446 1 1 1h1v-2h-2z"
         fill="#646466"
         id="path27"
         style="fill:#383839;fill-opacity:1" />
    </g>
    <rect
       id="hover-center"
       x="20"
       y="55"
       width="20"
       height="20"
       fill="#1e1e20"
       opacity=".4"
       style="fill:#1e1e20;fill-opacity:1" />
    <g
       id="hover-top">
      <rect
         x="20"
         y="54"
         width="20"
         height="1"
         fill="#1e1e20"
         opacity=".4"
         id="rect27" />
      <rect
         x="20"
         y="53"
         width="20"
         height="1"
         fill="#fff"
         opacity=".12"
         id="rect28" />
      <rect
         x="20"
         y="52"
         width="20"
         height="1"
         opacity="0"
         stroke-width=".57735"
         id="rect29" />
    </g>
    <g
       id="hover-bottom">
      <rect
         x="20"
         y="75"
         width="20"
         height="1"
         fill="#1e1e20"
         opacity=".4"
         id="rect30" />
      <rect
         x="20"
         y="76"
         width="20"
         height="1"
         fill="#fff"
         opacity=".12"
         id="rect31" />
      <rect
         x="20"
         y="77"
         width="20"
         height="1"
         opacity="0"
         stroke-width=".57735"
         id="rect32" />
    </g>
    <g
       id="hover-left">
      <rect
         x="19"
         y="55"
         width="1"
         height="20"
         fill="#1e1e20"
         opacity=".4"
         id="rect33" />
      <rect
         x="18"
         y="55"
         width="1"
         height="20"
         fill="#fff"
         opacity=".12"
         id="rect34" />
      <rect
         x="17"
         y="55"
         width="1"
         height="20"
         opacity="0"
         id="rect35" />
    </g>
    <g
       id="hover-right">
      <rect
         x="40"
         y="55"
         width="1"
         height="20"
         fill="#1e1e20"
         opacity=".4"
         id="rect36" />
      <rect
         x="41"
         y="55"
         width="1"
         height="20"
         fill="#fff"
         opacity=".12"
         id="rect37" />
      <rect
         x="42"
         y="55"
         width="1"
         height="20"
         opacity="0"
         stroke-width=".95346"
         id="rect38" />
    </g>
    <g
       id="hover-topleft">
      <rect
         x="17"
         y="52"
         width="3"
         height="3"
         opacity="0"
         id="rect39" />
      <path
         transform="translate(5 10)"
         d="m15 43c-1.108 0-2 0.892-2 2h1c0-0.554 0.446-1 1-1z"
         fill="#fff"
         opacity=".12"
         id="path39" />
      <path
         d="m20 54c-0.554 0-1 0.446-1 1h1z"
         fill="#1e1e20"
         opacity=".4"
         id="path40" />
    </g>
    <g
       id="hover-topright">
      <rect
         x="40"
         y="52"
         width="3"
         height="3"
         opacity="0"
         id="rect40" />
      <path
         transform="translate(5 10)"
         d="m35 43v1c0.554 0 1 0.446 1 1h1c0-1.108-0.892-2-2-2z"
         fill="#fff"
         opacity=".12"
         id="path41" />
      <path
         d="m41 55c0-0.554-0.446-1-1-1v1z"
         fill="#1e1e20"
         opacity=".4"
         id="path42" />
    </g>
    <g
       id="hover-bottomright">
      <rect
         x="40"
         y="75"
         width="3"
         height="3"
         opacity="0"
         id="rect42" />
      <path
         transform="translate(5 10)"
         d="m36 65c0 0.554-0.446 1-1 1v1c1.108 0 2-0.892 2-2z"
         fill="#fff"
         opacity=".12"
         id="path43" />
      <path
         d="m40 76c0.554 0 1-0.446 1-1h-1z"
         fill="#1e1e20"
         opacity=".4"
         id="path44" />
    </g>
    <g
       id="hover-bottomleft">
      <rect
         x="17"
         y="75"
         width="3"
         height="3"
         opacity="0"
         id="rect44" />
      <path
         transform="translate(5 10)"
         d="m13 65c0 1.108 0.892 2 2 2v-1c-0.554 0-1-0.446-1-1z"
         fill="#fff"
         opacity=".12"
         id="path45" />
      <path
         d="m19 75c0 0.554 0.446 1 1 1v-1z"
         fill="#1e1e20"
         opacity=".4"
         id="path46" />
    </g>
    <rect
       id="toolbutton-hover-center"
       x="55"
       y="55"
       width="20"
       height="20"
       opacity="0"
       stroke-width=".88388" />
    <g
       id="toolbutton-hover-top">
      <path
         transform="translate(5 10)"
         d="m50 43v2h20v-2z"
         opacity="0"
         stroke-width=".57735"
         id="path47" />
      <rect
         x="55"
         y="52"
         width="20"
         height="1"
         fill="#fff"
         opacity=".14"
         id="rect47" />
    </g>
    <g
       id="toolbutton-hover-bottom">
      <path
         transform="translate(5 10)"
         d="m50 65v2h20v-2z"
         opacity="0"
         stroke-width=".57735"
         id="path48" />
      <rect
         x="55"
         y="77"
         width="20"
         height="1"
         fill="#fff"
         opacity=".14"
         id="rect48" />
    </g>
    <g
       id="toolbutton-hover-left">
      <path
         transform="translate(5 10)"
         d="m48 45v20h2v-20h-1z"
         opacity="0"
         id="path49" />
      <rect
         x="52"
         y="55"
         width="1"
         height="20"
         fill="#fff"
         opacity=".14"
         id="rect49" />
    </g>
    <g
       id="toolbutton-hover-right">
      <path
         transform="translate(5 10)"
         d="m70 45v20h2v-20h-1z"
         opacity="0"
         id="path50" />
      <rect
         x="77"
         y="55"
         width="1"
         height="20"
         fill="#fff"
         opacity=".14"
         id="rect50" />
    </g>
    <g
       id="toolbutton-hover-topleft">
      <rect
         x="52"
         y="52"
         width="3"
         height="3"
         opacity="0"
         id="rect51" />
      <path
         transform="translate(5 10)"
         d="m49 42c-1.108 0-2 0.892-2 2v1h1v-1c0-0.554 0.446-1 1-1h1v-1z"
         fill="#fff"
         opacity=".14"
         id="path51" />
    </g>
    <g
       id="toolbutton-hover-topright">
      <rect
         x="75"
         y="52"
         width="3"
         height="3"
         opacity="0"
         id="rect52" />
      <path
         transform="translate(5 10)"
         d="m70 42v1h1c0.554 0 1 0.446 1 1v1h1v-1c0-1.108-0.892-2-2-2z"
         fill="#fff"
         opacity=".14"
         id="path52" />
    </g>
    <g
       id="toolbutton-hover-bottomright">
      <rect
         x="75"
         y="75"
         width="3"
         height="3"
         opacity="0"
         id="rect53" />
      <path
         transform="translate(5 10)"
         d="m72 65v1c0 0.554-0.446 1-1 1h-1v1h1c1.108 0 2-0.892 2-2v-1z"
         fill="#fffff9"
         opacity=".14"
         id="path53" />
    </g>
    <g
       id="toolbutton-hover-bottomleft">
      <rect
         x="52"
         y="75"
         width="3"
         height="3"
         opacity="0"
         id="rect54" />
      <path
         transform="translate(5 10)"
         d="m47 65v1c0 1.108 0.892 2 2 2h1v-1h-1c-0.554 0-1-0.446-1-1v-1z"
         fill="#fffffe"
         opacity=".14"
         id="path54" />
    </g>
    <rect
       id="normal-center"
       x="20"
       y="20"
       width="20"
       height="20"
       fill="#1e1e20"
       opacity=".8"
       style="fill:#1e1e20;fill-opacity:1;opacity:0" />
    <g
       id="normal-top">
      <path
         transform="translate(5 10)"
         d="m15 8v2h20v-2z"
         fill="#1e1e20"
         opacity=".8"
         id="path55"
         style="opacity:0" />
      <rect
         x="20"
         y="17"
         width="20"
         height="1"
         fill="#fff"
         opacity=".18"
         id="rect55"
         style="opacity:0" />
    </g>
    <g
       id="normal-bottom">
      <path
         transform="translate(5 10)"
         d="m15 30v2h20v-2z"
         fill="#1e1e20"
         opacity=".8"
         id="path56"
         style="opacity:0" />
      <rect
         x="20"
         y="42"
         width="20"
         height="1"
         fill="#fff"
         opacity=".18"
         id="rect56"
         style="opacity:0" />
    </g>
    <g
       id="normal-left">
      <path
         transform="translate(5 10)"
         d="m13 10v20h2v-20h-1z"
         fill="#1e1e20"
         opacity=".8"
         id="path57"
         style="opacity:0" />
      <rect
         x="17"
         y="20"
         width="1"
         height="20"
         fill="#fff"
         opacity=".18"
         id="rect57"
         style="opacity:0" />
    </g>
    <g
       id="normal-right">
      <path
         transform="translate(5 10)"
         d="m35 10v20h2v-20h-1z"
         fill="#1e1e20"
         opacity=".8"
         id="path58"
         style="opacity:0" />
      <rect
         x="42"
         y="20"
         width="1"
         height="20"
         fill="#fff"
         opacity=".18"
         id="rect58"
         style="opacity:0" />
    </g>
    <g
       id="normal-topleft">
      <path
         transform="translate(5 10)"
         d="m14 7c-1.108 0-2 0.892-2 2v1h1v-1c0-0.554 0.446-1 1-1h1v-1z"
         fill="#fff"
         opacity=".18"
         id="path59"
         style="opacity:0" />
      <path
         d="m19 18c-0.554 0-1 0.446-1 1v1h2v-2z"
         fill="#1e1e20"
         opacity=".8"
         id="path60"
         style="opacity:0" />
    </g>
    <g
       id="normal-topright">
      <path
         transform="translate(5 10)"
         d="m35 7v1h1c0.554 0 1 0.446 1 1v1h1v-1c0-1.108-0.892-2-2-2z"
         fill="#fff"
         opacity=".18"
         id="path61"
         style="opacity:0" />
      <path
         d="m42 19c0-0.554-0.446-1-1-1h-1v2h2z"
         fill="#1e1e20"
         opacity=".8"
         id="path62"
         style="opacity:0" />
    </g>
    <g
       id="normal-bottomright">
      <path
         transform="translate(5 10)"
         d="m37 30v1c0 0.554-0.446 1-1 1h-1v1h1c1.108 0 2-0.892 2-2v-1z"
         fill="#fff"
         opacity=".18"
         id="path63"
         style="opacity:0" />
      <path
         d="m41 42c0.554 0 1-0.446 1-1v-1h-2v2z"
         fill="#1e1e20"
         opacity=".8"
         id="path64"
         style="opacity:0" />
    </g>
    <g
       id="normal-bottomleft">
      <path
         transform="translate(5 10)"
         d="m12 30v1c0 1.108 0.892 2 2 2h1v-1h-1c-0.554 0-1-0.446-1-1v-1z"
         fill="#fff"
         opacity=".18"
         id="path65"
         style="opacity:0" />
      <path
         d="m18 41c0 0.554 0.446 1 1 1h1v-2h-2z"
         fill="#1e1e20"
         opacity=".8"
         id="path66"
         style="opacity:0" />
    </g>
  </g>
  <g
     transform="translate(-5 -832.52)"
     fill="#f0f"
     id="g67">
    <rect
       id="toolbutton-pressed-hint-left-margin"
       x="52"
       y="921.52"
       width="2"
       height="2" />
    <rect
       id="toolbutton-pressed-hint-top-margin"
       x="64"
       y="909.52"
       width="2"
       height="2" />
    <rect
       id="toolbutton-pressed-hint-right-margin"
       x="76"
       y="921.52"
       width="2"
       height="2" />
    <rect
       id="toolbutton-pressed-hint-bottom-margin"
       x="64"
       y="933.52"
       width="2"
       height="2" />
    <rect
       id="normal-hint-left-margin"
       x="17"
       y="851.52"
       width="4"
       height="2" />
    <rect
       id="normal-hint-top-margin"
       x="29"
       y="839.52"
       width="2"
       height="4" />
    <rect
       id="normal-hint-right-margin"
       x="39"
       y="851.52"
       width="4"
       height="2" />
    <rect
       id="normal-hint-bottom-margin"
       x="29"
       y="861.52"
       width="2"
       height="4" />
    <rect
       id="pressed-hint-left-margin"
       x="17"
       y="921.52"
       width="4"
       height="2" />
    <rect
       id="pressed-hint-top-margin"
       x="29"
       y="909.52"
       width="2"
       height="4" />
    <rect
       id="pressed-hint-right-margin"
       x="39"
       y="921.52"
       width="4"
       height="2" />
    <rect
       id="pressed-hint-bottom-margin"
       x="29"
       y="931.52"
       width="2"
       height="4" />
    <rect
       id="normal-hint-compose-over-border"
       x="5"
       y="832.52"
       width="5"
       height="5" />
    <rect
       id="hover-hint-left-margin"
       x="17"
       y="886.52"
       width="1"
       height="2" />
    <rect
       id="hover-hint-top-margin"
       x="29"
       y="874.52"
       width="2"
       height="1" />
    <rect
       id="hover-hint-right-margin"
       x="42"
       y="886.52"
       width="1"
       height="2" />
    <rect
       id="hover-hint-bottom-margin"
       x="29"
       y="899.52"
       width="2"
       height="1" />
    <rect
       id="toolbutton-hover-hint-left-margin"
       x="52"
       y="886.52"
       width="2"
       height="2" />
    <rect
       id="toolbutton-hover-hint-top-margin"
       x="64"
       y="874.52"
       width="2"
       height="2" />
    <rect
       id="toolbutton-hover-hint-right-margin"
       x="76"
       y="886.52"
       width="2"
       height="2" />
    <rect
       id="toolbutton-hover-hint-bottom-margin"
       x="64"
       y="898.52"
       width="2"
       height="2" />
    <rect
       id="hint-stretch-borders"
       x="5"
       y="842.52"
       width="5"
       height="5" />
  </g>
</svg>
